<svg version="1.1" xmlns="http://www.w3.org/2000/svg" xmlns:xlink="http://www.w3.org/1999/xlink" width="20" height="19" viewBox="0,0,256,243.19531"><g fill="#2aa5a0" fill-rule="nonzero" stroke="none" stroke-width="1" stroke-linecap="butt" stroke-linejoin="miter" stroke-miterlimit="10" stroke-dasharray="" stroke-dashoffset="0" font-family="none" font-weight="none" font-size="none" text-anchor="none" style="mix-blend-mode: normal"><g transform="translate(0,0.38533) scale(1,0.99672)"><g id="Layer"><g id="Layer"><path d="M256,124.7c0,55 -36.6,101.8 -87.9,118.1c-6.5,1.3 -8.8,-2.6 -8.8,-5.9c0,-4 0.2,-17.5 0.2,-34.1c0,-11.7 -4.2,-19.4 -8.6,-23.1c28.4,-3.1 58.4,-13.6 58.4,-61.5c0,-13.6 -5,-24.8 -13.2,-33.5c1.3,-3.1 5.6,-15.8 -1.2,-33c0,0 -10.8,-3.3 -35.1,12.8c-10.2,-2.8 -21.1,-4.1 -32,-4.2c-10.9,0.1 -21.7,1.4 -32,4.2c-24.5,-16.1 -35.2,-12.8 -35.2,-12.8c-6.9,17.2 -2.5,29.9 -1.1,33c-8.2,8.7 -13.2,19.9 -13.2,33.5c0,47.8 29.9,58.5 58.3,61.6c-3.6,3.1 -6.9,8.6 -8.1,16.7c-7.3,3.2 -25.8,8.7 -37.2,-10.4c0,0 -6.8,-12 -19.7,-12.9c0,0 -12.4,-0.1 -0.8,7.6c0,0 8.4,3.9 14.2,18.3c0,0 7.5,24.2 43.1,16.7c0.1,10.4 0.2,18.2 0.2,21.2c0,3.3 -2.4,7.2 -8.8,6c-50.8,-16.5 -87.5,-63.2 -87.5,-118.3c0,-68.9 57.3,-124.7 128,-124.7c70.7,0 128,55.8 128,124.7z" id="Layer"></path></g></g></g></g></svg>