<svg version="1.2" xmlns="http://www.w3.org/2000/svg" viewBox="0 0 256 256" width="20" height="20">
	<title>telegram-svg</title>
	<style>
		.s0 { fill: #ffffff } 
	</style>
	<g id="Layer">
		<g id="Layer">
			<path id="Layer" fill-rule="evenodd" class="s0" d="m0 128c0-70.8 57.2-128 128-128 70.8 0 128 57.2 128 128 0 70.8-57.2 128-128 128-70.8 0-128-57.2-128-128zm57.2 7.7l31.5 9.4 73.4-46.1c3.4-2.6 6.9-0.9 4.3 1.7l-59.7 52.9-2.6 33.3c3.4 0 5.1-1.7 6.8-3.4l15.4-15.4 32.4 23.9c5.1 3.4 9.4 1.7 11.1-5.1l21.3-99c1.8-8.5-3.4-12-9.3-10.2l-122.9 47.7c-8.6 3.5-8.6 7.7-1.7 10.3z"/>
		</g>
	</g>
</svg>