<svg version="1.1" xmlns="http://www.w3.org/2000/svg" xmlns:xlink="http://www.w3.org/1999/xlink" width="20" height="20" viewBox="0,0,256,256"><g fill="#2aa5a0" fill-rule="evenodd" stroke="none" stroke-width="1" stroke-linecap="butt" stroke-linejoin="miter" stroke-miterlimit="10" stroke-dasharray="" stroke-dashoffset="0" font-family="none" font-weight="none" font-size="none" text-anchor="none" style="mix-blend-mode: normal"><g><g id="Layer"><g id="Layer"><path d="M0,128c0,-70.8 57.2,-128 128,-128c70.8,0 128,57.2 128,128c0,70.8 -57.2,128 -128,128c-70.8,0 -128,-57.2 -128,-128zM57.2,135.7l31.5,9.4l73.4,-46.1c3.4,-2.6 6.9,-0.9 4.3,1.7l-59.7,52.9l-2.6,33.3c3.4,0 5.1,-1.7 6.8,-3.4l15.4,-15.4l32.4,23.9c5.1,3.4 9.4,1.7 11.1,-5.1l21.3,-99c1.8,-8.5 -3.4,-12 -9.3,-10.2l-122.9,47.7c-8.6,3.5 -8.6,7.7 -1.7,10.3z" id="Layer"></path></g></g></g></g></svg>