<svg version="1.2" xmlns="http://www.w3.org/2000/svg" viewBox="0 0 256 244" width="20" height="19">
	<title>github-svg</title>
	<style>
		.s0 { fill: #ffffff } 
	</style>
	<g id="Layer">
		<g id="Layer">
			<path id="Layer" class="s0" d="m256 124.7c0 55-36.6 101.8-87.9 118.1-6.5 1.3-8.8-2.6-8.8-5.9 0-4 0.2-17.5 0.2-34.1 0-11.7-4.2-19.4-8.6-23.1 28.4-3.1 58.4-13.6 58.4-61.5 0-13.6-5-24.8-13.2-33.5 1.3-3.1 5.6-15.8-1.2-33 0 0-10.8-3.3-35.1 12.8-10.2-2.8-21.1-4.1-32-4.2-10.9 0.1-21.7 1.4-32 4.2-24.5-16.1-35.2-12.8-35.2-12.8-6.9 17.2-2.5 29.9-1.1 33-8.2 8.7-13.2 19.9-13.2 33.5 0 47.8 29.9 58.5 58.3 61.6-3.6 3.1-6.9 8.6-8.1 16.7-7.3 3.2-25.8 8.7-37.2-10.4 0 0-6.8-12-19.7-12.9 0 0-12.4-0.1-0.8 7.6 0 0 8.4 3.9 14.2 18.3 0 0 7.5 24.2 43.1 16.7 0.1 10.4 0.2 18.2 0.2 21.2 0 3.3-2.4 7.2-8.8 6-50.8-16.5-87.5-63.2-87.5-118.3 0-68.9 57.3-124.7 128-124.7 70.7 0 128 55.8 128 124.7z"/>
		</g>
	</g>
</svg>