<svg version="1.2" xmlns="http://www.w3.org/2000/svg" viewBox="0 0 256 256" width="20" height="20">
	<title>instagram-svg</title>
	<style>
		.s0 { fill: #ffffff } 
	</style>
	<g id="Layer">
		<g id="Layer">
			<path id="Layer" fill-rule="evenodd" class="s0" d="m176.4-0.4c44.2 0 80 35.8 80 80v96c0 44.2-35.8 80-80 80h-96c-44.2 0-80-35.8-80-80v-96c0-44.2 35.8-80 80-80zm-96 24c-30.9 0-56 25.1-56 56v96c0 30.9 25.1 56 56 56h96c30.9 0 56-25.1 56-56v-96c0-30.9-25.1-56-56-56z"/>
			<path id="Layer" fill-rule="evenodd" class="s0" d="m64.4 127.6c0-35.4 28.6-64 64-64 35.4 0 64 28.6 64 64 0 35.4-28.6 64-64 64-35.4 0-64-28.6-64-64zm64 40c22.1 0 40-17.9 40-40 0-22.1-17.9-40-40-40-22.1 0-40 17.9-40 40 0 22.1 17.9 40 40 40z"/>
			<path id="Layer" class="s0" d="m188.7 58.8c0-4.7 3.8-8.5 8.5-8.5 4.7 0 8.5 3.8 8.5 8.5 0 4.7-3.8 8.5-8.5 8.5-4.7 0-8.5-3.8-8.5-8.5z"/>
		</g>
	</g>
</svg>